PathFileType	4	(X/Y/Z)	Patient4_TMGait_0pt3_01_right_15.trc.trc
DataRate	CameraRate	NumFrames	NumMarkers	Units	OrigDataRate	OrigDataStartFrame	OrigNumFrames
54.263565891473	54.263565891473	4	33	mm	54.263565891473	71	       141
Frame#	Time	Sacral			L.Shoulder			Chest			R.Shoulder			Neck			R.ASIS			L.ASIS			R.Thigh.Superior			R.Thigh.Lateral			R.Thigh.Inferior			R.Patella			L.Thigh.Superior			L.Thigh.Lateral			L.Thigh.Inferior			L.Patella			L.Shank.Superior			L.Shank.Lateral			L.Shank.Inferior			R.Shank.Superior			R.Shank.Lateral			R.Shank.Inferior			R.Heel			R.Midfoot.Superior			R.Midfoot.Lateral			R.Toe			L.Heel			L.Midfoot.Lateral			L.Midfoot.Superior			L.Toe			L.Elbow			L.Wrist			R.Elbow			R.Wrist			
		X1	Y1	Z1	X2	Y2	Z2	X3	Y3	Z3	X4	Y4	Z4	X5	Y5	Z5	X6	Y6	Z6	X7	Y7	Z7	X8	Y8	Z8	X9	Y9	Z9	X10	Y10	Z10	X11	Y11	Z11	X12	Y12	Z12	X13	Y13	Z13	X14	Y14	Z14	X15	Y15	Z15	X16	Y16	Z16	X17	Y17	Z17	X18	Y18	Z18	X19	Y19	Z19	X20	Y20	Z20	X21	Y21	Z21	X22	Y22	Z22	X23	Y23	Z23	X24	Y24	Z24	X25	Y25	Z25	X26	Y26	Z26	X27	Y27	Z27	X28	Y28	Z28	X29	Y29	Z29	X30	Y30	Z30	X31	Y31	Z31	X32	Y32	Z32	X33	Y33	Z33	

71	28.210000000000	734.929061894330	997.497536692324	603.261373102645	879.157861794449	1420.883350978671	391.716105474321	1007.025443952126	1354.375740631785	535.193343804684	955.317113668132	1434.565268575172	717.152059009279	893.965084031596	1487.095313191747	546.183027621712	974.136810343467	933.203788756683	692.501202645051	930.024312186516	954.559003571147	420.043006861730	983.353009343430	723.428354867619	656.495930638737	888.588951815818	618.811794967929	714.557339908663	953.183322631053	562.122618235493	630.163433835979	938.453657799146	471.830600724097	632.471425467747	1009.014905612476	766.484407688974	446.895488251040	955.393223630946	639.424801816959	369.921115618447	1057.774189939762	579.640816802257	431.888878672496	1082.232009971336	514.040252526213	427.677730719127	1063.525822029742	442.231503195095	414.436833898776	994.125397974452	316.293660295136	358.401262364353	1077.590710239598	212.715135046092	411.100402191216	894.350949615352	388.035559564318	634.643674361202	805.168967431742	293.955077650535	689.889836720439	831.707413529144	197.886243155194	621.528489595363	677.279162624073	44.096245246712	576.434067109823	846.347107862877	94.780504425376	624.659408603719	754.220407038092	36.712758576227	657.234877591631	962.760056129426	41.175847193023	664.098949485535	985.638034523200	38.007296889648	442.867837156793	1060.527954711117	42.333310903016	363.666365752118	1134.963482910933	114.618394046470	388.379682188713	1266.898201421250	79.087492877905	362.248809969848	726.060960330454	1100.710690675785	309.786471354499	695.607692582600	842.383500926039	331.923260187436	1119.653488044402	1142.581866174619	834.300872793354	1346.548457273506	1221.161703472859	754.752407939227	
72	28.228428571429	736.104491132339	996.864872895453	601.600686075576	878.721550049076	1419.812401545139	388.610185249429	1007.560994119309	1353.586038609319	531.381500352478	956.780333665791	1433.876083208734	713.537236060324	894.360316249196	1486.243599259416	542.726451004496	975.681338702894	932.298003487881	689.743105690892	930.179535001610	953.396888921739	417.506931721176	983.227190884631	722.085951568320	654.233975068541	887.439854744829	618.276050755775	712.775177362002	950.983786564587	560.893766826263	628.265584817060	935.164784497738	470.858782033629	630.550746920989	1008.701049011586	764.382805896067	444.288180579661	952.808644646027	637.415511131884	368.666428090771	1055.331058741672	577.481766805629	429.992959984176	1078.623143798444	511.522920594241	426.214675681556	1060.126944937457	439.790546648913	413.089422414818	990.202693286979	313.734861054385	358.264608873041	1073.887182064482	210.405791973006	411.019432104407	890.809813672060	387.294423200989	633.198656493002	801.358399476560	293.853223463304	689.132328231733	826.912909251428	197.503809069712	620.887773270363	671.695160146802	44.083983206312	576.487885465784	840.622608712265	94.509625465159	624.244637789651	748.650946383150	36.673779915973	657.284643095061	957.199516924559	41.129221908288	664.085130887401	981.204028840092	37.326664861858	443.906833866559	1055.773911543953	40.699108488147	364.304334603295	1131.245497732607	111.720740037441	388.815331408403	1262.636546017993	74.325789274548	362.146115363519	724.996871951863	1099.817199745307	308.535187429805	695.858460915196	841.139657965273	332.291315052682	1123.992968344473	1143.394007583173	829.252988419271	1348.551511577404	1225.931182925132	747.435845682946	
73	28.246857142857	737.375403109512	996.106321710732	599.690739544924	878.460951739654	1418.634919024010	385.338296752631	1008.213881866662	1352.723157957184	527.459694391175	958.265704597296	1433.108510147263	709.793550350464	894.857759294406	1485.307304166123	539.123294681429	977.357118618863	931.285323097820	686.756106898403	930.475486336220	952.251623417205	414.759295097109	983.455925685688	720.679131970934	651.711936390211	886.801682028394	617.601841578610	710.744347881328	949.362211661077	559.583488525312	626.115684856811	932.529269322963	469.720656071114	628.411061011949	1008.841056432233	762.613097352934	441.550100047896	951.001861534735	635.675470855239	367.248991126660	1053.741501902424	575.709904498692	427.910538559098	1075.824445410595	509.235519484217	424.590679722319	1057.417908087400	437.460507951466	411.610354527555	986.684384851687	311.491017516472	357.793031040035	1070.117116918960	208.140589240520	410.783840377752	887.745208480120	386.420464309088	631.560495484254	797.912519862337	293.755558642721	688.236104497634	822.325588204582	197.092316792961	620.160857238850	666.142867172654	44.150782922186	576.546795052246	834.974707088745	94.297939053409	623.869750704928	743.109708955986	36.678655064871	657.324577177048	951.656524921328	41.047608297753	664.079880543604	976.039658828734	36.905319463112	444.691680487827	1050.346602667035	39.187054954799	364.730632906415	1127.009137832900	108.775195069541	389.138695795842	1257.797173912971	69.251745253283	362.013637124381	725.082354568695	1098.298393169691	306.906635280766	698.043055944799	839.201914629272	332.161540882556	1127.823117717777	1143.739019954537	824.124115463290	1350.440769501069	1229.428550957496	740.434463340467	
74	28.265285714286	738.738437553954	995.327197668347	597.534721529310	878.349465015902	1417.458031225404	381.935883495394	1008.976622914206	1351.881991874635	523.441969780652	959.796834917546	1432.357642872462	705.944930119971	895.454341635419	1484.373473380373	535.424732132364	979.134446709183	930.236346556888	683.535566489105	930.914927113554	951.243091622796	411.790800423782	983.923273252489	719.263229701443	648.924202491471	886.534955999967	616.870192929228	708.476424333682	948.169436836927	558.251389106890	623.727544058436	930.392691893959	468.487954101459	626.079613112538	1009.459528997535	761.319830537387	438.710581472852	950.080356951994	634.316858423497	365.642497171618	1053.079441922237	574.405522900031	425.640752661062	1073.943206226085	507.307982070464	422.830895347851	1055.522930450891	435.368551313489	410.044935909073	983.795701759749	309.672394973389	356.949192557026	1066.477537238977	206.057102784871	410.421099322069	885.029835833029	385.490283717250	629.758013660588	794.725280253693	293.717310738400	687.213942556641	817.898630920550	196.708237974803	619.371246437334	660.627078990660	44.335661900210	576.612973426316	829.413683214761	94.159077858488	623.545200942133	737.601431386107	36.750833481710	657.356146888614	946.133035655501	40.927369130011	664.085193241693	970.454644052428	36.720906835915	445.199614748926	1044.573053830319	37.892239250007	364.947243658162	1122.457186894727	106.013329759732	389.361094026238	1252.639914311319	64.322524667378	361.892838249013	726.212914932035	1096.308985178805	304.903606015055	702.069608289838	836.749535896989	331.443848465168	1131.175305083051	1143.711867762954	818.948162152336	1352.315194522998	1231.684396868215	733.747781390011	
